<svg width="20" height="20" viewBox="0 0 20 20" fill="none" xmlns="http://www.w3.org/2000/svg">
<path d="M1.25 12.5V3.75C1.25 2.36929 2.36929 1.25 3.75 1.25H8.75V3.125H3.75C3.40482 3.125 3.125 3.40482 3.125 3.75V12.5C3.125 12.8452 3.40482 13.125 3.75 13.125H16.25C16.5952 13.125 16.875 12.8452 16.875 12.5V10H18.75V12.5C18.75 13.8807 17.6307 15 16.25 15H10.9375V16.875H15V18.75H5V16.875H9.0625V15H3.75C2.36929 15 1.25 13.8807 1.25 12.5Z" fill="#6A9A23"/>
<path d="M16.875 0V2.8125H19.6875V4.6875H16.875V7.5H15V4.6875H12.1875V2.8125H15V0H16.875Z" fill="#6A9A23"/>
</svg>
