<svg width="20" height="20" viewBox="0 0 20 20" fill="none" xmlns="http://www.w3.org/2000/svg">
<path fill-rule="evenodd" clip-rule="evenodd" d="M10 3.125C8.96447 3.125 8.125 3.96447 8.125 5H11.875C11.875 3.96447 11.0355 3.125 10 3.125ZM13.75 5.02592V5C13.75 2.92893 12.0711 1.25 10 1.25C7.92893 1.25 6.25 2.92893 6.25 5V5.02592C5.8869 5.08684 5.55918 5.25212 5.29875 5.48986L4.19039 4.69818L3.0442 2.11925L1.3308 2.88075L2.5116 5.53755C2.62487 5.79241 2.80429 6.01231 3.03124 6.17441L4.6875 7.35745V8.75H0.625V10.625H4.6875V12.0609L3.25026 13.2586C3.08466 13.3966 2.94941 13.5674 2.85301 13.7602L1.34897 16.7682L3.02603 17.6068L4.50082 14.6572L5.07655 14.1774C5.87102 16.1479 7.79784 17.5 10.0018 17.5H10.3125C12.4613 17.5 14.2936 16.1444 15.0007 14.2418L15.4992 14.6572L16.974 17.6068L18.651 16.7682L17.147 13.7602C17.0506 13.5674 16.9153 13.3966 16.7497 13.2586L15.3125 12.0609V10.625H19.375V8.75H15.3125V7.35745L16.9688 6.17441C17.1957 6.01231 17.3751 5.79241 17.4884 5.53755L18.6692 2.88075L16.9558 2.11925L15.8096 4.69818L14.7013 5.48986C14.4408 5.25212 14.1131 5.08684 13.75 5.02592ZM13.4375 12.5V6.875H6.5625V12.4283L6.60611 12.7117C6.86396 14.3878 8.30608 15.625 10.0018 15.625H10.3125C12.0384 15.625 13.4375 14.2259 13.4375 12.5Z" fill="#AE2E24"/>
</svg>
