<svg width="20" height="20" viewBox="0 0 20 20" fill="none" xmlns="http://www.w3.org/2000/svg">
<path d="M14.3972 3.75C14.3972 3.4049 14.1173 3.12512 13.7722 3.125H6.22827C5.88309 3.125 5.60327 3.40482 5.60327 3.75V16.0071L10.0002 12.9163L10.5386 13.2959L14.3972 16.0071V3.75ZM16.2722 17.7527C16.272 18.4878 15.4954 18.9372 14.8696 18.6194L14.7463 18.5449L9.99902 15.2075L5.25415 18.5449C4.61234 18.9961 3.72854 18.5371 3.72827 17.7527V3.75C3.72827 2.36929 4.84756 1.25 6.22827 1.25H13.7722C15.1528 1.25012 16.2722 2.36936 16.2722 3.75V17.7527Z" fill="#6A9A23"/>
</svg>
