<svg width="20" height="20" viewBox="0 0 20 20" fill="none" xmlns="http://www.w3.org/2000/svg">
<path d="M16.875 11.5625C16.875 11.2173 16.5952 10.9375 16.25 10.9375H10.9375V16.25C10.9375 16.5952 11.2173 16.875 11.5625 16.875H16.25C16.5952 16.875 16.875 16.5952 16.875 16.25V11.5625ZM9.0625 3.75C9.0625 3.40482 8.78268 3.125 8.4375 3.125H3.75C3.40482 3.125 3.125 3.40482 3.125 3.75V8.4375C3.125 8.78268 3.40482 9.0625 3.75 9.0625H9.0625V3.75ZM10.9375 9.0625H16.25C17.6307 9.0625 18.75 10.1818 18.75 11.5625V16.25C18.75 17.6307 17.6307 18.75 16.25 18.75H11.5625C10.1818 18.75 9.0625 17.6307 9.0625 16.25V10.9375H3.75C2.36929 10.9375 1.25 9.81821 1.25 8.4375V3.75C1.25 2.36929 2.36929 1.25 3.75 1.25H8.4375C9.81821 1.25 10.9375 2.36929 10.9375 3.75V9.0625Z" fill="#1868DB"/>
</svg>
