<svg width="80" height="80" viewBox="0 0 80 80" fill="none" xmlns="http://www.w3.org/2000/svg">
  <defs><linearGradient id="bg" x1="0" y1="0" x2="0" y2="1"><stop offset="0" stop-color="#D9A86B"></stop><stop offset="1" stop-color="#9C6B33"></stop></linearGradient>
  <linearGradient id="gl" x1="0" y1="0" x2="0" y2="1"><stop offset="0" stop-color="#fff" stop-opacity="0.20"></stop><stop offset="0.55" stop-color="#fff" stop-opacity="0"></stop></linearGradient></defs>
  <rect width="80" height="80" rx="18" fill="url(#bg)"></rect><rect width="80" height="80" rx="18" fill="url(#gl)"></rect>
<g fill="#ffffff"><rect x="17" y="42" width="15" height="18"></rect><rect x="33" y="33" width="15" height="27"></rect><rect x="49" y="46" width="14" height="14"></rect>
   <path d="M17 42l3-4 3 4zM24 42l3-4 3 4z"></path><path d="M33 33l3-4 3 4zM40 33l3-4 3 4z"></path><path d="M49 46l3-4 3 4zM56 46l3-4 3 4z"></path></g>
   <g fill="url(#bg)" opacity="0.6"><rect x="22" y="49" width="4" height="5"></rect><rect x="38" y="42" width="4" height="6"></rect><rect x="53" y="51" width="4" height="4"></rect></g>
</svg>