<svg width="80" height="80" viewBox="0 0 80 80" fill="none" xmlns="http://www.w3.org/2000/svg">
  <defs><linearGradient id="bg" x1="0" y1="0" x2="0" y2="1"><stop offset="0" stop-color="#E879F9"></stop><stop offset="1" stop-color="#C026D3"></stop></linearGradient>
  <linearGradient id="gl" x1="0" y1="0" x2="0" y2="1"><stop offset="0" stop-color="#fff" stop-opacity="0.20"></stop><stop offset="0.55" stop-color="#fff" stop-opacity="0"></stop></linearGradient></defs>
  <rect width="80" height="80" rx="18" fill="url(#bg)"></rect><rect width="80" height="80" rx="18" fill="url(#gl)"></rect>
<circle cx="40" cy="33" r="18" fill="none" stroke="#ffffff" stroke-width="3.6"></circle><g stroke="#ffffff" stroke-width="2"><line x1="40" y1="33" x2="57.0" y2="33.0"></line><line x1="40" y1="33" x2="52.0" y2="45.0"></line><line x1="40" y1="33" x2="40.0" y2="50.0"></line><line x1="40" y1="33" x2="28.0" y2="45.0"></line><line x1="40" y1="33" x2="23.0" y2="33.0"></line><line x1="40" y1="33" x2="28.0" y2="21.0"></line><line x1="40" y1="33" x2="40.0" y2="16.0"></line><line x1="40" y1="33" x2="52.0" y2="21.0"></line></g><circle cx="40" cy="33" r="3" fill="#ffffff"></circle><g fill="#ffffff"><circle cx="57.0" cy="33.0" r="2.4"></circle><circle cx="52.0" cy="45.0" r="2.4"></circle><circle cx="40.0" cy="50.0" r="2.4"></circle><circle cx="28.0" cy="45.0" r="2.4"></circle><circle cx="23.0" cy="33.0" r="2.4"></circle><circle cx="28.0" cy="21.0" r="2.4"></circle><circle cx="40.0" cy="16.0" r="2.4"></circle><circle cx="52.0" cy="21.0" r="2.4"></circle></g><path d="M40 33 31 59M40 33 49 59" stroke="#ffffff" stroke-width="4" stroke-linecap="round"></path><rect x="27" y="58" width="26" height="4" rx="1.5" fill="#ffffff"></rect>
</svg>