<svg width="512" height="512" viewBox="0 0 512 512" fill="none" xmlns="http://www.w3.org/2000/svg">
<path d="M0 129.62C0 58.033 58.033 0 129.62 0H382.38C453.967 0 512 58.033 512 129.62V382.38C512 453.967 453.967 512 382.38 512H129.62C58.033 512 0 453.967 0 382.38V129.62Z" fill="#2A2832"/>
<path d="M421.802 200.296V93.9727H259.279L233.457 127.389L210.674 93.9727H154.474C39.037 223.991 106.375 363.832 154.474 417.5H421.802V309.658H279.025L236.495 374.971C170.878 271.685 209.155 173.969 236.495 138.021L279.025 200.296H421.802Z" fill="url(#paint0_linear_750_140)"/>
<defs>
<linearGradient id="paint0_linear_750_140" x1="256.269" y1="93.9727" x2="256.269" y2="417.5" gradientUnits="userSpaceOnUse">
<stop stop-color="#F79357"/>
<stop offset="0.5" stop-color="#F53F68"/>
<stop offset="0.75" stop-color="#B41572"/>
<stop offset="1" stop-color="#CC1E9A"/>
</linearGradient>
</defs>
</svg>
