<svg width="19" height="19" viewBox="0 0 19 19" fill="none" xmlns="http://www.w3.org/2000/svg">
<path d="M0 12.5V3.75C0 2.36929 1.11929 1.25 2.5 1.25H7.5V3.125H2.5C2.15482 3.125 1.875 3.40482 1.875 3.75V12.5C1.875 12.8452 2.15482 13.125 2.5 13.125H15C15.3452 13.125 15.625 12.8452 15.625 12.5V10H17.5V12.5C17.5 13.8807 16.3807 15 15 15H9.6875V16.875H13.75V18.75H3.75V16.875H7.8125V15H2.5C1.11929 15 0 13.8807 0 12.5Z" fill="#6A9A23"/>
<path d="M15.625 0V2.8125H18.4375V4.6875H15.625V7.5H13.75V4.6875H10.9375V2.8125H13.75V0H15.625Z" fill="#6A9A23"/>
</svg>
