<svg width="18" height="18" viewBox="0 0 18 18" fill="none" xmlns="http://www.w3.org/2000/svg">
<path d="M15.625 2.5C15.625 2.15482 15.3452 1.875 15 1.875H10.6409L9.18335 5.625H11.5625C11.8719 5.625 12.1617 5.77742 12.3364 6.03271C12.5111 6.28802 12.5485 6.61353 12.4365 6.90186L10.249 12.5269L8.50098 11.8481L10.1917 7.5H7.8125C7.50311 7.5 7.21333 7.34758 7.03857 7.09229C6.86393 6.83698 6.82653 6.51147 6.93848 6.22314L8.62915 1.875H2.5C2.15482 1.875 1.875 2.15482 1.875 2.5V15C1.875 15.3452 2.15482 15.625 2.5 15.625H15C15.3452 15.625 15.625 15.3452 15.625 15V2.5ZM17.5 15C17.5 16.3807 16.3807 17.5 15 17.5H2.5C1.11929 17.5 1.25831e-08 16.3807 0 15V2.5C2.01333e-07 1.11929 1.11929 1.25831e-08 2.5 0H15C16.3807 2.01333e-07 17.5 1.11929 17.5 2.5V15Z" fill="#C9372C"/>
</svg>
