<svg width="17" height="20" viewBox="0 0 17 20" fill="none" xmlns="http://www.w3.org/2000/svg">
<path fill-rule="evenodd" clip-rule="evenodd" d="M10.9637 0.0633582C11.3246 0.203197 11.5625 0.550471 11.5625 0.937538V6.73147L15.4964 7.51824C15.8278 7.58453 16.0979 7.82409 16.2033 8.14525C16.3087 8.4664 16.233 8.81941 16.0053 9.06918L6.31779 19.6942C6.057 19.9802 5.64724 20.0766 5.28632 19.9367C4.9254 19.7969 4.68752 19.4496 4.68752 19.0625V13.2686L0.753659 12.4818C0.422223 12.4155 0.152128 12.176 0.0467473 11.8548C-0.0586331 11.5337 0.0170182 11.1807 0.244747 10.9309L9.93225 0.305893C10.193 0.019868 10.6028 -0.0764807 10.9637 0.0633582ZM2.7478 10.9685L6.56252 11.7315V16.6429L13.5022 9.03155L9.68752 8.2686V3.35722L2.7478 10.9685Z" fill="#AF59E1"/>
</svg>
