<svg width="20" height="20" viewBox="0 0 20 20" fill="none" xmlns="http://www.w3.org/2000/svg">
<path fill-rule="evenodd" clip-rule="evenodd" d="M10 1.875C5.51269 1.875 1.875 5.51269 1.875 10C1.875 14.4873 5.51269 18.125 10 18.125C14.4873 18.125 18.125 14.4873 18.125 10C18.125 5.51269 14.4873 1.875 10 1.875ZM0 10C0 4.47715 4.47715 0 10 0C15.5228 0 20 4.47715 20 10C20 15.5228 15.5228 20 10 20C4.47715 20 0 15.5228 0 10ZM10 6.25C9.26777 6.25 8.75 6.76777 8.75 7.5H6.875C6.875 5.73223 8.23223 4.375 10 4.375C11.7678 4.375 13.125 5.73223 13.125 7.5C13.125 8.91573 12.2342 9.63212 11.673 10.0731C11.0336 10.5754 10.9375 10.69 10.9375 10.9375V11.875H9.0625V10.9375C9.0625 9.71574 9.92369 9.05359 10.4103 8.67948C10.4474 8.65094 10.4823 8.62407 10.5145 8.59876C11.047 8.18038 11.25 7.95927 11.25 7.5C11.25 6.76777 10.7322 6.25 10 6.25Z" fill="#E06C00"/>
<path d="M11.25 14.375C11.25 15.0654 10.6904 15.625 10 15.625C9.30964 15.625 8.75 15.0654 8.75 14.375C8.75 13.6846 9.30964 13.125 10 13.125C10.6904 13.125 11.25 13.6846 11.25 14.375Z" fill="#E06C00"/>
</svg>
