<svg width="19" height="17" viewBox="0 0 19 17" fill="none" xmlns="http://www.w3.org/2000/svg">
<path fill-rule="evenodd" clip-rule="evenodd" d="M9.375 1.875C8.33947 1.875 7.5 2.71447 7.5 3.75H11.25C11.25 2.71447 10.4105 1.875 9.375 1.875ZM13.125 3.77592V3.75C13.125 1.67893 11.4461 0 9.375 0C7.30393 0 5.625 1.67893 5.625 3.75V3.77592C5.2619 3.83684 4.93418 4.00212 4.67375 4.23986L3.56539 3.44818L2.4192 0.869245L0.705802 1.63075L1.8866 4.28755C1.99987 4.54241 2.17929 4.76231 2.40624 4.92441L4.0625 6.10745V7.5H0V9.375H4.0625V10.8109L2.62526 12.0086C2.45966 12.1466 2.32441 12.3174 2.22801 12.5102L0.723974 15.5182L2.40103 16.3568L3.87582 13.4072L4.45155 12.9274C5.24602 14.8979 7.17284 16.25 9.37683 16.25H9.6875C11.8363 16.25 13.6686 14.8944 14.3757 12.9918L14.8742 13.4072L16.349 16.3568L18.026 15.5182L16.522 12.5102C16.4256 12.3174 16.2903 12.1466 16.1247 12.0086L14.6875 10.8109V9.375H18.75V7.5H14.6875V6.10745L16.3438 4.92441C16.5707 4.76231 16.7501 4.54241 16.8634 4.28755L18.0442 1.63075L16.3308 0.869245L15.1846 3.44818L14.0763 4.23986C13.8158 4.00212 13.4881 3.83684 13.125 3.77592ZM12.8125 11.25V5.625H5.9375V11.1783L5.98111 11.4617C6.23896 13.1378 7.68108 14.375 9.37683 14.375H9.6875C11.4134 14.375 12.8125 12.9759 12.8125 11.25Z" fill="#AE2E24"/>
</svg>
