<svg width="13" height="18" viewBox="0 0 13 18" fill="none" xmlns="http://www.w3.org/2000/svg">
<path d="M10.6689 2.5C10.6689 2.1549 10.389 1.87512 10.0439 1.875H2.5C2.15482 1.875 1.875 2.15482 1.875 2.5V14.7571L6.27197 11.6663L6.8103 12.0459L10.6689 14.7571V2.5ZM12.5439 16.5027C12.5437 17.2378 11.7672 17.6872 11.1414 17.3694L11.0181 17.2949L6.27075 13.9575L1.52588 17.2949C0.88407 17.7461 0.00026677 17.2871 0 16.5027V2.5C1.61066e-07 1.11929 1.11929 0 2.5 0H10.0439C11.4246 0.000124333 12.5439 1.11936 12.5439 2.5V16.5027Z" fill="#6A9A23"/>
</svg>
