<svg width="18" height="18" viewBox="0 0 18 18" fill="none" xmlns="http://www.w3.org/2000/svg">
<path d="M15.625 10.3125C15.625 9.96732 15.3452 9.6875 15 9.6875H9.6875V15C9.6875 15.3452 9.96732 15.625 10.3125 15.625H15C15.3452 15.625 15.625 15.3452 15.625 15V10.3125ZM7.8125 2.5C7.8125 2.15482 7.53268 1.875 7.1875 1.875H2.5C2.15482 1.875 1.875 2.15482 1.875 2.5V7.1875C1.875 7.53268 2.15482 7.8125 2.5 7.8125H7.8125V2.5ZM9.6875 7.8125H15C16.3807 7.8125 17.5 8.93179 17.5 10.3125V15C17.5 16.3807 16.3807 17.5 15 17.5H10.3125C8.93179 17.5 7.8125 16.3807 7.8125 15V9.6875H2.5C1.11929 9.6875 1.25831e-08 8.56821 0 7.1875V2.5C0 1.11929 1.11929 1.25831e-08 2.5 0H7.1875C8.56821 0 9.6875 1.11929 9.6875 2.5V7.8125Z" fill="#1868DB"/>
</svg>
