<svg width="20" height="15" viewBox="0 0 20 15" fill="none" xmlns="http://www.w3.org/2000/svg">
<path d="M18.125 2.5C18.125 2.19786 17.9107 1.94537 17.6257 1.88721L17.5 1.875H2.5C2.15482 1.875 1.875 2.15482 1.875 2.5V12.5C1.875 12.8452 2.15482 13.125 2.5 13.125H17.5C17.8452 13.125 18.125 12.8452 18.125 12.5V2.5ZM14.4666 4.97925L9.46655 10.9167C9.28843 11.128 9.02633 11.25 8.75 11.25C8.47367 11.25 8.21157 11.128 8.03345 10.9167L5.53345 7.948L6.96655 6.7395L8.75 8.8562L13.0334 3.77075L14.4666 4.97925ZM20 12.5C20 13.8807 18.8807 15 17.5 15H2.5C1.11929 15 2.51662e-09 13.8807 0 12.5V2.5C1.61066e-07 1.11929 1.11929 1.50997e-08 2.5 0H17.5L17.7551 0.0134277C19.016 0.141256 20 1.20544 20 2.5V12.5Z" fill="#1868DB"/>
</svg>
