<svg width="20" height="20" viewBox="0 0 20 20" fill="none" xmlns="http://www.w3.org/2000/svg">
<path d="M16.875 3.75C16.875 3.40482 16.5952 3.125 16.25 3.125H11.8909L10.4333 6.875H12.8125C13.1219 6.875 13.4117 7.02742 13.5864 7.28271C13.7611 7.53802 13.7985 7.86353 13.6865 8.15186L11.499 13.7769L9.75098 13.0981L11.4417 8.75H9.0625C8.75311 8.75 8.46333 8.59758 8.28857 8.34229C8.11393 8.08698 8.07653 7.76147 8.18848 7.47314L9.87915 3.125H3.75C3.40482 3.125 3.125 3.40482 3.125 3.75V16.25C3.125 16.5952 3.40482 16.875 3.75 16.875H16.25C16.5952 16.875 16.875 16.5952 16.875 16.25V3.75ZM18.75 16.25C18.75 17.6307 17.6307 18.75 16.25 18.75H3.75C2.36929 18.75 1.25 17.6307 1.25 16.25V3.75C1.25 2.36929 2.36929 1.25 3.75 1.25H16.25C17.6307 1.25 18.75 2.36929 18.75 3.75V16.25Z" fill="#C9372C"/>
</svg>
