<svg width="20" height="20" viewBox="0 0 20 20" fill="none" xmlns="http://www.w3.org/2000/svg">
<path fill-rule="evenodd" clip-rule="evenodd" d="M11.5616 2.00586L14.6866 4.50586C14.9831 4.74305 15.1554 5.10199 15.1554 5.4811C15.1554 5.86022 14.9831 6.21916 14.6866 6.45634L11.5616 8.95634L10.3884 7.49014L11.7825 6.37502H6.87499C5.49428 6.37502 4.37499 7.49431 4.37499 8.87502V10.625H2.49999V8.87502C2.49999 6.45877 4.45874 4.50002 6.87499 4.50002H11.7825L10.3884 3.3849L11.5616 2.00586ZM17.5 11.125V9.37502H15.625V11.125C15.625 12.5057 14.5057 13.625 13.125 13.625H8.21747L9.61159 12.5099L8.43844 11.0437L5.31344 13.5437C5.0169 13.7809 4.84459 14.1398 4.84459 14.5189C4.84459 14.898 5.0169 15.257 5.31344 15.4942L8.43844 17.9942L9.61159 16.528L8.21747 15.4129H13.125C15.5413 15.4129 17.5 13.4541 17.5 11.0379V11.125Z" fill="#1868DB"/>
</svg>
