<svg width="20" height="20" viewBox="0 0 20 20" fill="none" xmlns="http://www.w3.org/2000/svg">
<path fill-rule="evenodd" clip-rule="evenodd" d="M12.8386 0.0633578C13.1996 0.203196 13.4374 0.550467 13.4374 0.937532V6.73143L17.3713 7.5182C17.7027 7.58448 17.9728 7.82405 18.0782 8.1452C18.1836 8.46635 18.1079 8.81936 17.8802 9.06913L8.19274 19.6941C7.93195 19.9801 7.5222 20.0764 7.16128 19.9366C6.80035 19.7968 6.56248 19.4495 6.56248 19.0624V13.2685L2.62864 12.4818C2.29721 12.4155 2.02712 12.1759 1.92174 11.8548C1.81636 11.5336 1.89201 11.1806 2.11973 10.9308L11.8072 0.305891C12.068 0.0198679 12.4777 -0.0764802 12.8386 0.0633578ZM4.62277 10.9685L8.43747 11.7314V16.6428L15.3771 9.03149L11.5624 8.26855V3.3572L4.62277 10.9685Z" fill="#AF59E1"/>
</svg>
