<svg width="20" height="20" viewBox="0 0 20 20" fill="none" xmlns="http://www.w3.org/2000/svg">
<path fill-rule="evenodd" clip-rule="evenodd" d="M9.4338 1.39879C9.78603 1.20374 10.214 1.20374 10.5662 1.39879L17.8162 5.41129C18.1934 5.62007 18.4267 6.01717 18.4267 6.44999C18.4267 6.88281 18.1934 7.27991 17.8162 7.48869L10.5662 11.5012C10.214 11.6962 9.78603 11.6962 9.43381 11.5012L2.18381 7.48869C1.80665 7.27991 1.57336 6.88281 1.57336 6.44999C1.57336 6.01717 1.80665 5.62007 2.18381 5.41129L9.4338 1.39879ZM4.43365 6.44999L10 9.53189L15.5664 6.44999L10 3.36809L4.43365 6.44999ZM2.18381 9.78869C2.55649 9.58235 3.0245 9.71666 3.23083 10.0894L10 13.8344L16.7692 10.0894C16.9755 9.71666 17.4435 9.58235 17.8162 9.78869C18.1889 9.99502 18.3232 10.4631 18.1169 10.8358L18.1162 10.8369C18.0067 11.0349 17.8463 11.2007 17.6512 11.3162L10.5662 15.2387C10.214 15.4338 9.78603 15.4338 9.43381 15.2387L2.34881 11.3162C2.15369 11.2007 1.99326 11.0349 1.88381 10.8369L1.88311 10.8358C1.67678 10.4631 1.81113 9.99502 2.18381 9.78869ZM2.18381 13.5387C2.55649 13.3324 3.0245 13.4667 3.23083 13.8394L10 17.5844L16.7692 13.8394C16.9755 13.4667 17.4435 13.3324 17.8162 13.5387C18.1889 13.745 18.3232 14.2131 18.1169 14.5858L18.1162 14.5869C18.0067 14.7849 17.8463 14.9507 17.6512 15.0662L10.5662 18.9887C10.214 19.1838 9.78603 19.1838 9.43381 18.9887L2.34881 15.0662C2.15369 14.9507 1.99326 14.7849 1.88381 14.5869L1.88311 14.5858C1.67678 14.2131 1.81113 13.745 2.18381 13.5387Z" fill="#1868DB"/>
</svg>
