<svg width="20" height="20" viewBox="0 0 20 20" fill="none" xmlns="http://www.w3.org/2000/svg">
<path d="M18.125 4.375C18.125 4.07286 17.9107 3.82037 17.6257 3.76221L17.5 3.75H2.5C2.15482 3.75 1.875 4.02982 1.875 4.375V15.625C1.875 15.9702 2.15482 16.25 2.5 16.25H17.5C17.8452 16.25 18.125 15.9702 18.125 15.625V4.375ZM8.78784 7.53784L6.32568 10L8.78784 12.4622L7.46216 13.7878L4.33716 10.6628C3.97105 10.2967 3.97106 9.70328 4.33716 9.33716L7.46216 6.21216L8.78784 7.53784ZM15.6628 9.33716C16.0289 9.70325 16.0289 10.2967 15.6628 10.6628L12.5378 13.7878L11.2122 12.4622L13.6743 10L11.2122 7.53784L12.5378 6.21216L15.6628 9.33716ZM20 15.625C20 17.0057 18.8807 18.125 17.5 18.125H2.5C1.11929 18.125 3.01995e-08 17.0057 0 15.625V4.375C0 2.99429 1.11929 1.875 2.5 1.875H17.5L17.7551 1.88843C19.016 2.01626 20 3.08044 20 4.375V15.625Z" fill="#1868DB"/>
</svg>
