<svg width="20" height="20" viewBox="0 0 20 20" fill="none" xmlns="http://www.w3.org/2000/svg">
<path fill="#FF5630" fill-rule="evenodd" d="M5.982 12.5L14.018 12.5L13.126 10L6.874 10L5.982 12.5ZM5 13.75C4.31 13.75 3.75 14.31 3.75 15L3.75 16.25L16.25 16.25L16.25 15C16.25 14.31 15.69 13.75 15 13.75L5 13.75ZM7.32 8.75L12.68 8.75L11.177 4.54C11.051 4.186 10.773 3.908 10.42 3.782C9.77 3.55 9.054 3.889 8.823 4.54L7.32 8.75ZM2.5 0L17.5 0C18.881 0 20 1.119 20 2.5L20 17.5C20 18.881 18.881 20 17.5 20L2.5 20C1.119 20 0 18.881 0 17.5L0 2.5C0 1.119 1.119 0 2.5 0Z"/>
</svg>
