<svg width="20" height="20" viewBox="0 0 20 20" fill="none" xmlns="http://www.w3.org/2000/svg">
<path d="M18.125 5C18.125 4.69786 17.9107 4.44537 17.6257 4.38721L17.5 4.375H2.5C2.15482 4.375 1.875 4.65482 1.875 5V15C1.875 15.3452 2.15482 15.625 2.5 15.625H17.5C17.8452 15.625 18.125 15.3452 18.125 15V5ZM14.4666 7.47925L9.46655 13.4167C9.28843 13.628 9.02633 13.75 8.75 13.75C8.47367 13.75 8.21157 13.628 8.03345 13.4167L5.53345 10.448L6.96655 9.2395L8.75 11.3562L13.0334 6.27075L14.4666 7.47925ZM20 15C20 16.3807 18.8807 17.5 17.5 17.5H2.5C1.11929 17.5 2.51662e-09 16.3807 0 15V5C1.61066e-07 3.61929 1.11929 2.5 2.5 2.5H17.5L17.7551 2.51343C19.016 2.64126 20 3.70544 20 5V15Z" fill="#1868DB"/>
</svg>
