<svg xmlns="http://www.w3.org/2000/svg" viewBox="0 0 80 80" width="80" height="80" role="img" aria-label="Caty">
  <!-- ears -->
  <path d="M20 30 L25 5 L42 22 Z" fill="#F4F1EA"/>
  <path d="M60 30 L55 5 L38 22 Z" fill="#F4F1EA"/>
  <!-- inner ear marks - dark on light body -->
  <path d="M25.5 11 L28 23 L35.5 19 Z" fill="#23222B" opacity="0.30"/>
  <path d="M54.5 11 L52 23 L44.5 19 Z" fill="#23222B" opacity="0.30"/>
  <!-- head -->
  <circle cx="40" cy="44" r="30" fill="#F4F1EA"/>
  <!-- face details: dark on light -->
  <g transform="translate(40 43) scale(0.235) translate(-348 -150)">
    <g stroke="#23222B" stroke-width="10" stroke-linecap="round" fill="none">
      <path d="M300 172 Q244 168 226 178"/>
      <path d="M300 182 Q240 185 222 198"/>
      <path d="M398 172 Q454 168 472 178"/>
      <path d="M398 182 Q458 185 476 198"/>
    </g>
    <path d="M340 178 L356 178 Q348 190 340 178 Z" fill="#23222B"/>
    <g fill="none" stroke="#23222B" stroke-width="14" stroke-linecap="round">
      <path d="M303 150 Q322 171 341 150"/>
      <path d="M355 150 Q374 171 393 150"/>
    </g>
  </g>
</svg>
