<svg width="1028" height="241" viewBox="0 0 1028 241" fill="none" xmlns="http://www.w3.org/2000/svg">
<path d="M404.235 94.755H382.281C381.436 90.064 379.865 85.9359 377.566 82.3707C375.268 78.8055 372.453 75.7798 369.122 73.2935C365.792 70.8073 362.062 68.9309 357.934 67.6643C353.853 66.3977 349.514 65.7644 344.917 65.7644C336.614 65.7644 329.178 67.8519 322.611 72.027C316.09 76.202 310.93 82.3238 307.13 90.3923C303.378 98.4609 301.501 108.312 301.501 119.946C301.501 131.673 303.378 141.571 307.13 149.64C310.93 157.709 316.114 163.807 322.681 167.935C329.249 172.063 336.637 174.127 344.846 174.127C349.397 174.127 353.712 173.517 357.794 172.298C361.922 171.031 365.651 169.178 368.982 166.739C372.312 164.299 375.127 161.321 377.426 157.802C379.771 154.237 381.389 150.156 382.281 145.559L404.235 145.629C403.062 152.713 400.787 159.233 397.409 165.191C394.079 171.101 389.786 176.215 384.532 180.53C379.325 184.799 373.368 188.106 366.66 190.452C359.951 192.797 352.633 193.97 344.706 193.97C332.227 193.97 321.11 191.015 311.352 185.104C301.595 179.147 293.902 170.632 288.273 159.562C282.69 148.491 279.899 135.285 279.899 119.946C279.899 104.559 282.714 91.354 288.343 80.3301C293.972 69.2592 301.665 60.7685 311.423 54.8578C321.18 48.9002 332.274 45.9214 344.706 45.9214C352.352 45.9214 359.482 47.0238 366.097 49.2286C372.758 51.3864 378.739 54.5763 384.04 58.7983C389.341 62.9733 393.727 68.0865 397.198 74.1379C400.67 80.1424 403.015 87.0148 404.235 94.755ZM456.054 194.392C449.205 194.392 443.013 193.126 437.477 190.593C431.942 188.013 427.556 184.283 424.319 179.405C421.129 174.526 419.534 168.545 419.534 161.461C419.534 155.363 420.707 150.344 423.053 146.403C425.398 142.463 428.565 139.343 432.552 137.045C436.539 134.746 440.996 133.01 445.921 131.838C450.847 130.665 455.866 129.774 460.98 129.164C467.453 128.413 472.707 127.803 476.741 127.334C480.776 126.818 483.708 125.997 485.537 124.871C487.367 123.746 488.281 121.916 488.281 119.383V118.89C488.281 112.745 486.546 107.984 483.074 104.606C479.65 101.229 474.537 99.5398 467.735 99.5398C460.651 99.5398 455.069 101.111 450.988 104.254C446.953 107.35 444.162 110.798 442.614 114.598L422.841 110.095C425.187 103.527 428.611 98.2264 433.115 94.1921C437.665 90.1109 442.896 87.1555 448.806 85.326C454.717 83.4496 460.933 82.5114 467.453 82.5114C471.769 82.5114 476.343 83.0274 481.174 84.0594C486.053 85.0446 490.603 86.8741 494.825 89.5479C499.094 92.2218 502.589 96.045 505.31 101.018C508.031 105.943 509.391 112.346 509.391 120.227V192H488.844V177.223H488C486.639 179.944 484.599 182.618 481.878 185.245C479.157 187.872 475.662 190.053 471.394 191.789C467.125 193.525 462.012 194.392 456.054 194.392ZM460.628 177.505C466.445 177.505 471.417 176.355 475.545 174.057C479.72 171.758 482.887 168.756 485.044 165.05C487.249 161.297 488.352 157.286 488.352 153.018V139.085C487.601 139.836 486.147 140.539 483.989 141.196C481.878 141.806 479.462 142.345 476.741 142.815C474.021 143.237 471.37 143.636 468.79 144.011C466.21 144.339 464.052 144.621 462.316 144.855C458.235 145.371 454.506 146.239 451.128 147.459C447.798 148.678 445.124 150.437 443.107 152.736C441.136 154.988 440.151 157.99 440.151 161.743C440.151 166.95 442.075 170.89 445.921 173.564C449.768 176.191 454.67 177.505 460.628 177.505ZM583.903 83.9187V100.806H524.866V83.9187H583.903ZM540.699 58.0242H561.738V160.265C561.738 164.346 562.348 167.419 563.567 169.483C564.787 171.5 566.359 172.884 568.282 173.635C570.252 174.338 572.386 174.69 574.685 174.69C576.374 174.69 577.852 174.573 579.118 174.338C580.385 174.104 581.37 173.916 582.073 173.775L585.873 191.156C584.654 191.625 582.918 192.094 580.666 192.563C578.414 193.079 575.6 193.36 572.222 193.407C566.687 193.501 561.527 192.516 556.742 190.452C551.957 188.388 548.087 185.198 545.132 180.882C542.176 176.567 540.699 171.148 540.699 164.628V58.0242ZM634.667 194.392C627.818 194.392 621.626 193.126 616.09 190.593C610.555 188.013 606.169 184.283 602.932 179.405C599.742 174.526 598.147 168.545 598.147 161.461C598.147 155.363 599.32 150.344 601.665 146.403C604.011 142.463 607.177 139.343 611.165 137.045C615.152 134.746 619.608 133.01 624.534 131.838C629.46 130.665 634.479 129.774 639.592 129.164C646.066 128.413 651.32 127.803 655.354 127.334C659.388 126.818 662.32 125.997 664.15 124.871C665.979 123.746 666.894 121.916 666.894 119.383V118.89C666.894 112.745 665.158 107.984 661.687 104.606C658.263 101.229 653.149 99.5398 646.347 99.5398C639.264 99.5398 633.682 101.111 629.6 104.254C625.566 107.35 622.775 110.798 621.227 114.598L601.454 110.095C603.8 103.527 607.224 98.2264 611.728 94.1921C616.278 90.1109 621.508 87.1555 627.419 85.326C633.33 83.4496 639.545 82.5114 646.066 82.5114C650.382 82.5114 654.955 83.0274 659.787 84.0594C664.666 85.0446 669.216 86.8741 673.438 89.5479C677.707 92.2218 681.202 96.045 683.922 101.018C686.643 105.943 688.004 112.346 688.004 120.227V192H667.457V177.223H666.613C665.252 179.944 663.212 182.618 660.491 185.245C657.77 187.872 654.275 190.053 650.006 191.789C645.738 193.525 640.624 194.392 634.667 194.392ZM639.24 177.505C645.057 177.505 650.03 176.355 654.158 174.057C658.333 171.758 661.499 168.756 663.657 165.05C665.862 161.297 666.964 157.286 666.964 153.018V139.085C666.214 139.836 664.76 140.539 662.602 141.196C660.491 141.806 658.075 142.345 655.354 142.815C652.633 143.237 649.983 143.636 647.403 144.011C644.823 144.339 642.665 144.621 640.929 144.855C636.848 145.371 633.119 146.239 629.741 147.459C626.41 148.678 623.737 150.437 621.719 152.736C619.749 154.988 618.764 157.99 618.764 161.743C618.764 166.95 620.687 170.89 624.534 173.564C628.381 176.191 633.283 177.505 639.24 177.505ZM733.103 47.8916V192H712.064V47.8916H733.103ZM770.744 232.53C767.601 232.53 764.739 232.272 762.159 231.756C759.579 231.287 757.656 230.771 756.389 230.208L761.455 212.969C765.302 214.001 768.726 214.447 771.729 214.306C774.731 214.165 777.381 213.039 779.68 210.928C782.025 208.817 784.09 205.369 785.872 200.585L788.476 193.407L748.93 83.9187H771.447L798.819 167.794H799.945L827.317 83.9187H849.905L805.363 206.425C803.299 212.054 800.672 216.816 797.482 220.709C794.293 224.65 790.493 227.605 786.083 229.575C781.674 231.545 776.56 232.53 770.744 232.53ZM946.705 110.306L927.636 113.683C926.838 111.244 925.572 108.922 923.836 106.717C922.147 104.512 919.849 102.706 916.94 101.299C914.032 99.8917 910.396 99.188 906.034 99.188C900.076 99.188 895.104 100.525 891.116 103.199C887.129 105.826 885.135 109.227 885.135 113.402C885.135 117.014 886.472 119.922 889.146 122.127C891.82 124.332 896.136 126.138 902.093 127.545L919.262 131.486C929.207 133.784 936.619 137.326 941.498 142.111C946.377 146.896 948.816 153.111 948.816 160.758C948.816 167.231 946.94 173.001 943.187 178.068C939.481 183.087 934.297 187.028 927.636 189.889C921.022 192.751 913.352 194.181 904.626 194.181C892.524 194.181 882.649 191.601 875.003 186.441C867.356 181.234 862.665 173.846 860.93 164.276L881.265 161.18C882.532 166.481 885.135 170.492 889.076 173.212C893.016 175.886 898.153 177.223 904.486 177.223C911.382 177.223 916.893 175.792 921.022 172.931C925.15 170.023 927.214 166.481 927.214 162.306C927.214 158.928 925.947 156.09 923.414 153.792C920.928 151.493 917.105 149.757 911.944 148.585L893.649 144.574C883.564 142.275 876.105 138.616 871.273 133.597C866.488 128.577 864.096 122.221 864.096 114.528C864.096 108.148 865.879 102.566 869.444 97.7807C873.009 92.9959 877.934 89.2665 884.22 86.5926C890.506 83.8718 897.707 82.5114 905.823 82.5114C917.503 82.5114 926.698 85.0446 933.406 90.1109C940.114 95.1303 944.547 101.862 946.705 110.306ZM1018.44 83.9187V100.806H959.401V83.9187H1018.44ZM975.233 58.0242H996.272V160.265C996.272 164.346 996.882 167.419 998.102 169.483C999.322 171.5 1000.89 172.884 1002.82 173.635C1004.79 174.338 1006.92 174.69 1009.22 174.69C1010.91 174.69 1012.39 174.573 1013.65 174.338C1014.92 174.104 1015.9 173.916 1016.61 173.775L1020.41 191.156C1019.19 191.625 1017.45 192.094 1015.2 192.563C1012.95 193.079 1010.13 193.36 1006.76 193.407C1001.22 193.501 996.061 192.516 991.277 190.452C986.492 188.388 982.622 185.198 979.666 180.882C976.711 176.567 975.233 171.148 975.233 164.628V58.0242Z" fill="#CECFD2"/>
<rect y="8.53027" width="224.636" height="224.636" rx="56.8699" fill="#1868DB"/>
<path d="M185.063 96.4095V49.7607H113.757L102.428 64.4218L92.4316 49.7607H67.7745C17.1273 106.805 46.6715 168.16 67.7745 191.706H185.063V144.391H122.42L103.761 173.047C74.9717 127.731 91.7652 84.8583 103.761 69.0866L122.42 96.4095H185.063Z" fill="white"/>
</svg>
