<svg width="80" height="80" viewBox="0 0 80 80" fill="none" xmlns="http://www.w3.org/2000/svg">
  <defs><linearGradient id="bg" x1="0" y1="0" x2="0" y2="1"><stop offset="0" stop-color="#818CF8"></stop><stop offset="1" stop-color="#4338CA"></stop></linearGradient>
  <linearGradient id="gl" x1="0" y1="0" x2="0" y2="1"><stop offset="0" stop-color="#fff" stop-opacity="0.20"></stop><stop offset="0.55" stop-color="#fff" stop-opacity="0"></stop></linearGradient></defs>
  <rect width="80" height="80" rx="18" fill="url(#bg)"></rect><rect width="80" height="80" rx="18" fill="url(#gl)"></rect>
<rect x="28" y="20" width="4" height="9" rx="2" fill="#ffffff"></rect><rect x="48" y="20" width="4" height="9" rx="2" fill="#ffffff"></rect><rect x="19" y="24.5" width="42" height="35.5" rx="5" fill="#ffffff"></rect><line x1="19" y1="36" x2="61" y2="36" stroke="url(#bg)" stroke-width="3"></line><g fill="url(#bg)"><rect x="26" y="42" width="6" height="6" rx="1.5"></rect><rect x="37" y="42" width="6" height="6" rx="1.5"></rect><rect x="48" y="42" width="6" height="6" rx="1.5"></rect><rect x="26" y="51" width="6" height="6" rx="1.5"></rect><rect x="37" y="51" width="6" height="6" rx="1.5"></rect></g>
</svg>