<svg width="80" height="80" viewBox="0 0 80 80" fill="none" xmlns="http://www.w3.org/2000/svg">
  <defs><linearGradient id="bg" x1="0" y1="0" x2="0" y2="1"><stop offset="0" stop-color="#94A3B8"></stop><stop offset="1" stop-color="#475569"></stop></linearGradient>
  <linearGradient id="gl" x1="0" y1="0" x2="0" y2="1"><stop offset="0" stop-color="#fff" stop-opacity="0.20"></stop><stop offset="0.55" stop-color="#fff" stop-opacity="0"></stop></linearGradient></defs>
  <rect width="80" height="80" rx="18" fill="url(#bg)"></rect><rect width="80" height="80" rx="18" fill="url(#gl)"></rect>
<path d="M40 28c-5-4-12-5-18-4v26c6-1 13 0 18 4 5-4 12-5 18-4V24c-6-1-13 0-18 4z" fill="#ffffff"></path><line x1="40" y1="28" x2="40" y2="57" stroke="url(#bg)" stroke-width="3"></line><g stroke="url(#bg)" stroke-width="2.2" stroke-linecap="round" opacity="0.85"><line x1="27" y1="34" x2="35" y2="35"></line><line x1="27" y1="41" x2="35" y2="42"></line><line x1="45" y1="35" x2="53" y2="34"></line><line x1="45" y1="42" x2="53" y2="41"></line></g>
</svg>